<?xml version="1.0" encoding="UTF-8"?>
<svg version="1.1" xmlns="http://www.w3.org/2000/svg" width="199" height="37">
<path d="M0 0 C65.67 0 131.34 0 199 0 C199 12.21 199 24.42 199 37 C133.33 37 67.66 37 0 37 C0 24.79 0 12.58 0 0 Z " fill="#FBFBFB" transform="translate(0,0)"/>
<path d="M0 0 C8.05718867 -0.48102619 8.05718867 -0.48102619 12.0625 1.5625 C14 4 14 4 14.625 7.4375 C14 11 14 11 12.0625 13.9375 C7.7768922 16.82372566 5.09427214 16.38016956 0 16 C0 10.72 0 5.44 0 0 Z " fill="#2F2F42" transform="translate(62,11)"/>
<path d="M0 0 C0.99 0 1.98 0 3 0 C3 0.66 3 1.32 3 2 C3.66 2 4.32 2 5 2 C5 2.99 5 3.98 5 5 C4.34 5 3.68 5 3 5 C3.66 7.97 4.32 10.94 5 14 C1 13 1 13 -2 12 C-2.99 12.66 -3.98 13.32 -5 14 C-8.12026907 14.32502803 -10.14747535 14.51151479 -12.875 12.875 C-14.52854531 10.11909116 -14.39365568 8.14924548 -14 5 C-12.83203125 3.32421875 -12.83203125 3.32421875 -11 2 C-8.30078125 1.70703125 -8.30078125 1.70703125 -5.3125 1.8125 C-4.31863281 1.83957031 -3.32476562 1.86664063 -2.30078125 1.89453125 C-1.16189453 1.94673828 -1.16189453 1.94673828 0 2 C0 1.34 0 0.68 0 0 Z " fill="#F1F1F2" transform="translate(117,13)"/>
<path d="M0 0 C3.3 0 6.6 0 10 0 C10.99 1.98 11.98 3.96 13 6 C13.99 4.02 14.98 2.04 16 0 C16.66 0 17.32 0 18 0 C17.54821002 5.72267312 15.43533017 11.39353454 12 16 C9.328125 16.79296875 9.328125 16.79296875 7 17 C7 16.01 7 15.02 7 14 C7.99 13.67 8.98 13.34 10 13 C9.5289356 8.85463326 9.0080208 6.0080208 6 3 C5.01 3 4.02 3 3 3 C3 5.97 3 8.94 3 12 C2.01 12 1.02 12 0 12 C0 8.04 0 4.08 0 0 Z " fill="#303042" transform="translate(138,15)"/>
<path d="M0 0 C0.99 0 1.98 0 3 0 C5.1875 3 5.1875 3 7 6 C7.7425 5.195625 8.485 4.39125 9.25 3.5625 C12 1 12 1 16 0 C16 5.28 16 10.56 16 16 C15.01 16 14.02 16 13 16 C12.67 13.03 12.34 10.06 12 7 C11.01 8.32 10.02 9.64 9 11 C5.83884224 9.63016497 5.0072908 9.0109362 3 6 C2.67 9.3 2.34 12.6 2 16 C1.34 16 0.68 16 0 16 C0 10.72 0 5.44 0 0 Z " fill="#28283A" transform="translate(27,11)"/>
<path d="M0 0 C4.22999675 1.05749919 4.54930356 1.20032488 6.75 4.5625 C7.17796875 5.20316406 7.6059375 5.84382813 8.046875 6.50390625 C8.36140625 6.99761719 8.6759375 7.49132812 9 8 C9.33 5.36 9.66 2.72 10 0 C10.99 0 11.98 0 13 0 C13 5.28 13 10.56 13 16 C8.11261969 13.55630984 6.97285462 11.45928193 4 7 C3.67 9.97 3.34 12.94 3 16 C2.01 16 1.02 16 0 16 C0 10.72 0 5.44 0 0 Z " fill="#303042" transform="translate(161,11)"/>
<path d="M0 0 C1.875 1.125 1.875 1.125 3 3 C3.39365568 6.14924548 3.52854531 8.11909116 1.875 10.875 C-0.88090884 12.52854531 -2.85075452 12.39365568 -6 12 C-7.875 10.875 -7.875 10.875 -9 9 C-9.39365568 5.85075452 -9.52854531 3.88090884 -7.875 1.125 C-5.11909116 -0.52854531 -3.14924548 -0.39365568 0 0 Z " fill="#383849" transform="translate(133,15)"/>
<path d="M0 0 C0.99 0.66 1.98 1.32 3 2 C2.67 2.99 2.34 3.98 2 5 C1.34 5 0.68 5 0 5 C0 4.34 0 3.68 0 3 C-2.31 3.33 -4.62 3.66 -7 4 C-7 6.64 -7 9.28 -7 12 C-4.65466049 12.76956136 -4.65466049 12.76956136 -2 13 C-0.1645201 11.66621425 -0.1645201 11.66621425 1 10 C-0.32 10 -1.64 10 -3 10 C-3 9.01 -3 8.02 -3 7 C-0.69 7 1.62 7 4 7 C3.6875 10.375 3.6875 10.375 3 14 C-0.7205836 16.48038907 -2.59796571 16.46337203 -7 16 C-9.4375 14.5 -9.4375 14.5 -11 12 C-11.80414661 7.95439643 -11.63828902 5.02126244 -9.4375 1.5 C-6.11203064 -0.54644269 -3.83693587 -0.41857482 0 0 Z " fill="#222235" transform="translate(188,11)"/>
<path d="M0 0 C1.670625 0.061875 1.670625 0.061875 3.375 0.125 C4.035 1.445 4.695 2.765 5.375 4.125 C3.065 3.795 0.755 3.465 -1.625 3.125 C-1.955 4.115 -2.285 5.105 -2.625 6.125 C-0.9234375 6.5890625 -0.9234375 6.5890625 0.8125 7.0625 C4.375 8.125 4.375 8.125 5.375 9.125 C5.5625 11.5625 5.5625 11.5625 5.375 14.125 C3.375 16.125 3.375 16.125 0.4375 16.375 C-2.625 16.125 -2.625 16.125 -5.625 14.125 C-5.625 13.135 -5.625 12.145 -5.625 11.125 C-5.026875 11.455 -4.42875 11.785 -3.8125 12.125 C-1.57113529 13.33287988 -1.57113529 13.33287988 1.375 13.125 C1.705 12.135 2.035 11.145 2.375 10.125 C1.240625 9.815625 0.10625 9.50625 -1.0625 9.1875 C-4.625 8.125 -4.625 8.125 -5.625 7.125 C-5.8125 4.6875 -5.8125 4.6875 -5.625 2.125 C-3.625 0.125 -3.625 0.125 0 0 Z " fill="#28283B" transform="translate(18.625,10.875)"/>
<path d="M0 0 C3.0625 0.375 3.0625 0.375 4.9375 2.375 C5.494375 3.365 5.494375 3.365 6.0625 4.375 C3.4225 4.045 0.7825 3.715 -1.9375 3.375 C-1.9375 4.035 -1.9375 4.695 -1.9375 5.375 C0.7025 6.695 3.3425 8.015 6.0625 9.375 C6.25 11.75 6.25 11.75 6.0625 14.375 C2.59326119 16.68782587 1.14044425 16.79978586 -2.9375 16.375 C-4.8125 15 -4.8125 15 -5.9375 13.375 C-5.9375 12.715 -5.9375 12.055 -5.9375 11.375 C-4.9475 11.375 -3.9575 11.375 -2.9375 11.375 C-2.9375 12.035 -2.9375 12.695 -2.9375 13.375 C-1.2875 13.375 0.3625 13.375 2.0625 13.375 C2.3925 12.385 2.7225 11.395 3.0625 10.375 C2.11375 10.25125 1.165 10.1275 0.1875 10 C-2.9375 9.375 -2.9375 9.375 -4.9375 7.375 C-5.1875 4.875 -5.1875 4.875 -4.9375 2.375 C-2.9375 0.375 -2.9375 0.375 0 0 Z " fill="#2B2B3E" transform="translate(50.9375,10.625)"/>
<path d="M0 0 C2.875 -0.125 2.875 -0.125 6 0 C8 2 8 2 8.25 5 C8 8 8 8 6 10 C2.875 10.125 2.875 10.125 0 10 C0 6.7 0 3.4 0 0 Z " fill="#F0F0F1" transform="translate(65,14)"/>
<path d="M0 0 C0 0.66 0 1.32 0 2 C-0.639375 2.12375 -1.27875 2.2475 -1.9375 2.375 C-2.618125 2.58125 -3.29875 2.7875 -4 3 C-4.33 3.66 -4.66 4.32 -5 5 C-2.36 4.67 0.28 4.34 3 4 C3 4.99 3 5.98 3 7 C0.36 7 -2.28 7 -5 7 C-4.67 7.66 -4.34 8.32 -4 9 C-1.69 9 0.62 9 3 9 C2.01 10.485 2.01 10.485 1 12 C-2.1305429 12.39964378 -4.13083761 12.52149743 -6.875 10.875 C-8.52854531 8.11909116 -8.39365568 6.14924548 -8 3 C-5.87141064 -0.36093057 -3.79035926 -0.30732643 0 0 Z " fill="#1B1B2F" transform="translate(98,15)"/>
<path d="M0 0 C0.33 0.99 0.66 1.98 1 3 C-1.64 2.67 -4.28 2.34 -7 2 C-6.67 3.98 -6.34 5.96 -6 8 C-2.535 7.505 -2.535 7.505 1 7 C0.34 8.32 -0.32 9.64 -1 11 C-6.4 11.36 -6.4 11.36 -8.875 9.875 C-10.52854531 7.11909116 -10.39365568 5.14924548 -10 2 C-7.64463991 -2.2950684 -4.23605512 -0.87918125 0 0 Z " fill="#2B2B3D" transform="translate(113,16)"/>
<path d="M0 0 C0.33 0 0.66 0 1 0 C1 5.28 1 10.56 1 16 C-2 13 -2 13 -2.25 11 C-2.91274564 8.53756152 -2.91274564 8.53756152 -6.5625 7.25 C-7.696875 6.8375 -8.83125 6.425 -10 6 C-9.67 4.68 -9.34 3.36 -9 2 C-6.36 2.33 -3.72 2.66 -1 3 C-0.67 2.01 -0.34 1.02 0 0 Z " fill="#D6D6D9" transform="translate(26,11)"/>
<path d="M0 0 C3.3 0 6.6 0 10 0 C10.33 1.32 10.66 2.64 11 4 C10.01 4.33 9.02 4.66 8 5 C7.34 4.34 6.68 3.68 6 3 C5.01 3 4.02 3 3 3 C3 5.97 3 8.94 3 12 C2.01 12 1.02 12 0 12 C0 8.04 0 4.08 0 0 Z " fill="#3A3A4B" transform="translate(138,15)"/>
<path d="M0 0 C0.99 0 1.98 0 3 0 C3 0.66 3 1.32 3 2 C3.66 2 4.32 2 5 2 C5 2.99 5 3.98 5 5 C4.34 5 3.68 5 3 5 C3.66 7.97 4.32 10.94 5 14 C1 13 1 13 0 12 C-0.04092937 9.66702567 -0.04241723 7.33294775 0 5 C-0.66 5 -1.32 5 -2 5 C-2 4.01 -2 3.02 -2 2 C-1.34 2 -0.68 2 0 2 C0 1.34 0 0.68 0 0 Z " fill="#262639" transform="translate(117,13)"/>
<path d="M0 0 C0.99 0.66 1.98 1.32 3 2 C2.67 2.99 2.34 3.98 2 5 C1.34 5 0.68 5 0 5 C0 4.34 0 3.68 0 3 C-2.31 3.33 -4.62 3.66 -7 4 C-7.33 5.98 -7.66 7.96 -8 10 C-9.625 8.3125 -9.625 8.3125 -11 6 C-10.3125 3.3125 -10.3125 3.3125 -9 1 C-5.98131566 -0.50934217 -3.32702771 -0.17510672 0 0 Z " fill="#2E2E40" transform="translate(188,11)"/>
<path d="M0 0 C0.2784375 0.8971875 0.2784375 0.8971875 0.5625 1.8125 C2.72273753 5.09981799 5.35107655 5.64854687 9 7 C8.67 8.32 8.34 9.64 8 11 C6.35 10.67 4.7 10.34 3 10 C3 9.34 3 8.68 3 8 C1.68 8 0.36 8 -1 8 C-0.67 5.36 -0.34 2.72 0 0 Z " fill="#E7E7E9" transform="translate(45,14)"/>
<path d="M0 0 C1.98 0 3.96 0 6 0 C6 0.99 6 1.98 6 3 C5.01 3 4.02 3 3 3 C3 5.97 3 8.94 3 12 C2.01 12 1.02 12 0 12 C0 8.04 0 4.08 0 0 Z " fill="#333345" transform="translate(83,15)"/>
<path d="M0 0 C2 3 2 3 2 5 C3.65 5 5.3 5 7 5 C7.66 3.68 8.32 2.36 9 1 C9.66 1 10.32 1 11 1 C10.25 5.75 10.25 5.75 8 8 C5 8.25 5 8.25 2 8 C0 6 0 6 -0.125 2.875 C-0.08375 1.92625 -0.0425 0.9775 0 0 Z " fill="#222235" transform="translate(125,19)"/>
<path d="M0 0 C2.31 0 4.62 0 7 0 C6.75 3.375 6.75 3.375 6 7 C3.9375 8.4375 3.9375 8.4375 2 9 C2.66 7.02 3.32 5.04 4 3 C2.68 3 1.36 3 0 3 C0 2.01 0 1.02 0 0 Z " fill="#303042" transform="translate(185,18)"/>
<path d="M0 0 C1.67542976 0.28604898 3.34385343 0.61781233 5 1 C5 2.65 5 4.3 5 6 C1.25 7.125 1.25 7.125 -1 6 C-1.042721 4.33388095 -1.04063832 2.66617115 -1 1 C-0.67 0.67 -0.34 0.34 0 0 Z " fill="#EBEBED" transform="translate(128,18)"/>
<path d="M0 0 C0.99 0 1.98 0 3 0 C3 3.96 3 7.92 3 12 C2.01 12 1.02 12 0 12 C0 8.04 0 4.08 0 0 Z " fill="#3B3B4C" transform="translate(78,15)"/>
<path d="M0 0 C3.00617269 3.00617269 2.59585316 5.82381598 3 10 C2.34 10 1.68 10 1 10 C0.67 10.66 0.34 11.32 0 12 C-2.29013653 8.5647952 -2.17842973 7.014669 -2 3 C-1.34 3 -0.68 3 0 3 C0 2.01 0 1.02 0 0 Z " fill="#E5E5E7" transform="translate(122,15)"/>
<path d="M0 0 C2.33944736 0.28730055 4.6739143 0.61936779 7 1 C7.33 1.99 7.66 2.98 8 4 C5.36 3.67 2.72 3.34 0 3 C0 4.65 0 6.3 0 8 C-0.99 7.01 -1.98 6.02 -3 5 C-1.125 1.125 -1.125 1.125 0 0 Z " fill="#353547" transform="translate(106,15)"/>
<path d="M0 0 C1.670625 0.061875 1.670625 0.061875 3.375 0.125 C4.035 1.445 4.695 2.765 5.375 4.125 C4.3025 3.8775 3.23 3.63 2.125 3.375 C-1.65245496 2.70071378 -1.65245496 2.70071378 -4.0625 5.0625 C-4.578125 5.743125 -5.09375 6.42375 -5.625 7.125 C-5.75 4.75 -5.75 4.75 -5.625 2.125 C-3.625 0.125 -3.625 0.125 0 0 Z " fill="#333345" transform="translate(18.625,10.875)"/>
<path d="M0 0 C0.33 0 0.66 0 1 0 C1.44117322 4.49996683 1.52867608 6.34611117 -1.375 9.9375 C-4 12 -4 12 -6 12 C-6 11.34 -6 10.68 -6 10 C-7.32 9.67 -8.64 9.34 -10 9 C-8.88625 8.690625 -7.7725 8.38125 -6.625 8.0625 C-3.2054845 7.17673517 -3.2054845 7.17673517 -1 6 C-0.34227572 2.97065509 -0.34227572 2.97065509 0 0 Z " fill="#404051" transform="translate(75,15)"/>
<path d="M0 0 C0.99 0 1.98 0 3 0 C3.66 2.97 4.32 5.94 5 9 C1 8 1 8 0 7 C-0.04092937 4.66702567 -0.04241723 2.33294775 0 0 Z " fill="#353547" transform="translate(117,18)"/>
<path d="M0 0 C0 0.66 0 1.32 0 2 C-2.70879335 3.35439668 -5.00933268 3.06501451 -8 3 C-7.67 2.01 -7.34 1.02 -7 0 C-4.05610218 -1.17755913 -3.10046087 -1.03348696 0 0 Z " fill="#94949D" transform="translate(101,17)"/>
<path d="M0 0 C0 0.66 0 1.32 0 2 C-0.928125 2.185625 -0.928125 2.185625 -1.875 2.375 C-4.19120832 2.87197356 -4.19120832 2.87197356 -6 5 C-6.69748583 6.31747324 -7.36959957 7.64914193 -8 9 C-8.36190476 3.57142857 -8.36190476 3.57142857 -6.8125 1.125 C-4.43963721 -0.34781139 -2.74086056 -0.22223194 0 0 Z " fill="#2E2E40" transform="translate(98,15)"/>
<path d="M0 0 C3.46941546 0.45822468 6.67395049 0.89131683 10 2 C8 4 8 4 4.875 4.125 C3.92625 4.08375 2.9775 4.0425 2 4 C1.34 2.68 0.68 1.36 0 0 Z " fill="#222236" transform="translate(91,23)"/>
<path d="M0 0 C0.66 0.33 1.32 0.66 2 1 C1.01 2.485 1.01 2.485 0 4 C-0.39013716 5.9896995 -0.73202649 7.99019869 -1 10 C-2.625 8.3125 -2.625 8.3125 -4 6 C-3.3125 3.3125 -3.3125 3.3125 -2 1 C-1.34 0.67 -0.68 0.34 0 0 Z " fill="#3F3F50" transform="translate(181,11)"/>
<path d="M0 0 C0.33 0.99 0.66 1.98 1 3 C0.34 3.66 -0.32 4.32 -1 5 C-2.32 5 -3.64 5 -5 5 C-5 4.01 -5 3.02 -5 2 C-3.35 1.34 -1.7 0.68 0 0 Z " fill="#404051" transform="translate(150,27)"/>
<path d="M0 0 C2.31 0 4.62 0 7 0 C7 0.66 7 1.32 7 2 C5.02 2.33 3.04 2.66 1 3 C0.67 2.01 0.34 1.02 0 0 Z " fill="#DFDFE2" transform="translate(93,22)"/>
</svg>
